<?xml version="1.0" standalone="no"?>
<!DOCTYPE svg PUBLIC "-//W3C//DTD SVG 20010904//EN"
 "http://www.w3.org/TR/2001/REC-SVG-20010904/DTD/svg10.dtd">
<svg version="1.0" xmlns="http://www.w3.org/2000/svg"
 width="400.000000pt" height="400.000000pt" viewBox="0 0 400.000000 400.000000"
 preserveAspectRatio="xMidYMid meet">
<metadata>
Created by potrace 1.11, written by Peter Selinger 2001-2013
</metadata>
<g transform="translate(0.000000,400.000000) scale(0.100000,-0.100000)"
fill="#000000" stroke="none">
<path d="M2048 3986 c-1 -2 -37 -6 -79 -10 -92 -8 -189 -32 -366 -91 -211 -71
-316 -78 -453 -32 -44 15 -70 19 -70 12 0 -30 34 -135 56 -172 29 -49 18 -57
-19 -14 -25 30 -41 32 -30 5 3 -8 0 -14 -6 -14 -6 0 -13 12 -17 28 -3 15 -9
38 -14 52 -8 24 -9 24 -26 -17 -21 -48 -32 -49 -97 -6 -22 13 -40 23 -42 21
-2 -2 16 -46 39 -98 39 -88 43 -102 44 -184 0 -75 -3 -95 -19 -118 -33 -45
-75 -148 -90 -218 -9 -41 -14 -127 -14 -235 0 -187 13 -260 67 -388 34 -80 33
-107 -3 -124 -42 -20 -62 -76 -62 -168 0 -130 32 -231 101 -318 28 -35 41 -58
87 -158 26 -57 58 -83 104 -81 35 2 40 -1 46 -25 29 -116 157 -315 296 -459
l49 -51 -39 -12 c-48 -14 -93 -63 -116 -127 -34 -96 -75 -171 -111 -205 -21
-19 -50 -46 -65 -61 -17 -15 -29 -37 -29 -51 0 -26 -12 -31 -108 -43 -20 -2
-44 -6 -52 -9 -8 -2 -39 -7 -69 -10 -30 -4 -63 -9 -75 -11 -11 -2 -36 -6 -56
-9 -266 -40 -443 -160 -519 -353 -23 -59 -51 -172 -51 -208 l0 -24 1755 0
c1716 0 1755 0 1755 19 0 28 -38 148 -68 211 -59 129 -180 242 -312 294 -92
36 -236 77 -330 92 -136 23 -232 49 -241 66 -6 11 -44 53 -85 94 -78 79 -104
124 -124 216 -17 76 -65 127 -112 119 -19 -3 -3 28 33 64 57 57 172 209 213
283 19 34 48 94 63 133 25 65 29 70 52 66 48 -9 76 17 121 110 22 47 54 103
69 122 77 100 114 221 106 349 -4 78 -15 107 -51 137 -23 20 -23 20 -7 80 17
67 21 225 5 266 -8 19 -5 42 10 95 17 54 21 98 22 199 0 122 -2 135 -30 206
-39 97 -89 171 -179 268 -71 75 -156 131 -200 131 -18 1 -17 4 9 26 21 19 36
24 55 20 l26 -6 -25 14 c-18 10 -30 11 -45 4 -11 -5 -1 9 23 32 23 22 42 43
42 46 0 9 -45 -18 -73 -45 l-29 -26 22 54 c11 30 25 62 31 72 5 11 6 19 2 19
-11 0 -51 -64 -59 -94 -10 -43 -20 -37 -18 11 1 29 -1 42 -8 35 -5 -5 -10 -30
-11 -56 -2 -40 -4 -44 -15 -29 -63 87 -143 153 -252 208 -83 42 -157 64 -240
71 -36 3 -70 7 -77 9 -6 2 -13 2 -15 1z"/>
</g>
</svg>
